<?xml version="1.0" encoding="UTF-8" standalone="no"?>
<!-- Created with Inkscape (http://www.inkscape.org/) -->

<svg
   xmlns:dc="http://purl.org/dc/elements/1.1/"
   xmlns:cc="http://creativecommons.org/ns#"
   xmlns:rdf="http://www.w3.org/1999/02/22-rdf-syntax-ns#"
   xmlns:svg="http://www.w3.org/2000/svg"
   xmlns="http://www.w3.org/2000/svg"
   xmlns:sodipodi="http://sodipodi.sourceforge.net/DTD/sodipodi-0.dtd"
   xmlns:inkscape="http://www.inkscape.org/namespaces/inkscape"
   width="83.514511mm"
   height="144.56798mm"
   viewBox="0 0 83.514511 144.56798"
   version="1.1"
   id="svg105"
   inkscape:version="0.92.3 (2405546, 2018-03-11)"
   sodipodi:docname="Pin Up Girl.svg">
  <title
     id="title120">Pin Up Girl</title>
  <defs
     id="defs99" />
  <sodipodi:namedview
     id="base"
     pagecolor="#ffffff"
     bordercolor="#666666"
     borderopacity="1.0"
     inkscape:pageopacity="0.0"
     inkscape:pageshadow="2"
     inkscape:zoom="0.35"
     inkscape:cx="286.97612"
     inkscape:cy="147.18826"
     inkscape:document-units="mm"
     inkscape:current-layer="layer1"
     showgrid="false"
     inkscape:snap-global="false"
     fit-margin-top="0"
     fit-margin-left="0"
     fit-margin-right="0"
     fit-margin-bottom="0"
     inkscape:window-width="1920"
     inkscape:window-height="1017"
     inkscape:window-x="3832"
     inkscape:window-y="-8"
     inkscape:window-maximized="1" />
  <metadata
     id="metadata102">
    <rdf:RDF>
      <cc:Work
         rdf:about="">
        <dc:format>image/svg+xml</dc:format>
        <dc:type
           rdf:resource="http://purl.org/dc/dcmitype/StillImage" />
        <dc:title>Pin Up Girl</dc:title>
        <cc:license
           rdf:resource="http://creativecommons.org/publicdomain/zero/1.0/" />
      </cc:Work>
      <cc:License
         rdf:about="http://creativecommons.org/publicdomain/zero/1.0/">
        <cc:permits
           rdf:resource="http://creativecommons.org/ns#Reproduction" />
        <cc:permits
           rdf:resource="http://creativecommons.org/ns#Distribution" />
        <cc:permits
           rdf:resource="http://creativecommons.org/ns#DerivativeWorks" />
      </cc:License>
    </rdf:RDF>
  </metadata>
  <g
     inkscape:label="Layer 1"
     inkscape:groupmode="layer"
     id="layer1"
     transform="translate(-29.904235,-43.208918)">
    <path
       style="fill:#000000;stroke-width:1"
       d="m 72.073414,187.7467 c -1.96831,-0.32219 -3.29759,-0.92025 -3.57356,-1.60778 -0.0861,-0.2145 -0.28013,-0.92942 -0.43118,-1.58875 -0.15105,-0.65931 -0.32992,-1.24866 -0.39749,-1.30969 -0.32388,-0.29248 -1.47053,-0.86682 -1.52935,-0.76605 -0.0366,0.0628 -0.0145,0.69592 0.0492,1.407 0.2006,2.2394 0.18891,2.35738 -0.25002,2.52426 -0.21244,0.0808 -0.47831,0.27827 -0.59082,0.43891 -0.15392,0.21976 -0.29835,0.26948 -0.58341,0.20086 -0.56128,-0.13511 -0.73798,-0.46755 -0.73798,-1.38839 0,-0.84509 -0.55985,-2.92273 -0.95448,-3.54215 -0.72121,-1.13203 -1.65842,-3.06008 -1.72555,-3.54984 -0.11807,-0.86146 0.15124,-1.62665 1.0424,-2.96171 1.53961,-2.30653 1.67843,-2.79602 1.3543,-4.77524 -0.16921,-1.03327 -1.00149,-3.68237 -1.1569,-3.68237 -0.2147,0 -1.41671,3.09151 -1.56391,4.02231 -0.0812,0.51356 -0.24764,1.80645 -0.36984,2.87308 -0.12219,1.06663 -0.35235,2.67456 -0.51145,3.57317 -0.21516,1.21517 -0.26456,1.91459 -0.19276,2.72942 0.11903,1.35084 0.16621,1.47947 0.90105,2.45643 0.67944,0.9033 0.70169,1.12232 0.25556,2.51624 -0.23253,0.72651 -0.4159,1.05114 -0.6635,1.17458 -0.18819,0.0938 -0.39909,0.2723 -0.46866,0.39661 -0.0722,0.12895 -0.31564,0.22604 -0.56683,0.22604 -0.6315,0 -3.11801,-0.69239 -3.71135,-1.03345 -0.99465,-0.57178 -2.45691,-1.73885 -2.65248,-2.11705 -0.18359,-0.35502 -0.15809,-0.47701 0.31919,-1.52666 0.42292,-0.93012 0.52944,-1.35308 0.57671,-2.29005 0.0319,-0.63207 -1.4e-4,-1.3016 -0.0712,-1.48783 -0.12033,-0.31531 -0.20495,-0.23728 -1.22995,1.13418 -0.60541,0.81001 -1.28019,1.59173 -1.49951,1.73714 -0.21933,0.14542 -0.50812,0.3434 -0.64176,0.43998 -0.19848,0.14345 -0.29714,0.12661 -0.5387,-0.092 -0.43933,-0.3976 -0.37138,-0.64682 0.45441,-1.66683 1.0592,-1.3083 2.48562,-4.16446 2.62101,-5.24808 0.12244,-0.97994 0.29696,-1.2563 1.85222,-2.933 2.02063,-2.17841 2.44701,-3.26261 2.75243,-6.99905 0.23642,-2.8922 0.47096,-4.34825 1.17458,-7.29183 l 0.51442,-2.15213 -0.25713,-2.04928 c -0.19731,-1.57256 -0.23641,-2.55901 -0.16804,-4.24046 0.10309,-2.53579 0.27126,-3.40704 1.22698,-6.35686 1.06944,-3.3008 1.66051,-5.96964 1.51128,-6.82384 -0.13683,-0.7832 -1.20373,-3.46887 -1.57768,-3.97146 -0.18495,-0.24857 -0.39559,-0.70108 -0.46809,-1.00557 -0.15583,-0.65452 -2.33035,-5.13463 -2.74397,-5.65335 -0.1575,-0.19752 -0.29037,-0.52075 -0.29526,-0.71827 -0.005,-0.19752 -0.20025,-0.71468 -0.43412,-1.14923 -0.23388,-0.43455 -0.42525,-0.86188 -0.42526,-0.94962 -2e-5,-0.0877 -0.15723,-0.39115 -0.34935,-0.67426 -0.34824,-0.51315 -1.12326,-2.52861 -1.39184,-3.61948 -0.25226,-1.02459 -1.09886,-3.61351 -1.32407,-4.04901 -0.55272,-1.06885 -0.86553,-7.80382 -0.46246,-9.95724 0.30383,-1.62323 0.80858,-3.34046 1.07674,-3.66317 0.31926,-0.38422 1.01441,-1.432309 1.01441,-1.529449 0,-0.26341 2.55615,-2.56243 3.71462,-3.34095 1.68516,-1.13248 2.63114,-1.5769 4.20461,-1.97533 1.03186,-0.26128 1.45796,-0.29257 2.99845,-0.22021 0.98762,0.0464 2.76534,0.21919 3.95048,0.384 2.62464,0.36499 5.09483,0.39075 6.09513,0.0636 1.11706,-0.36538 1.09568,-0.32934 2.25309,-3.79653 0.35606,-1.06663 0.93728,-2.51286 1.2916,-3.21384 0.35434,-0.70098 0.61001,-1.30873 0.56818,-1.35056 -0.0418,-0.0418 -0.44873,0.15244 -0.90423,0.43171 -1.09795,0.67316 -2.63015,1.42239 -3.74023,1.82892 -0.49549,0.18146 -0.93565,0.38617 -0.97814,0.45492 -0.0425,0.0688 -0.22616,0.125 -0.40816,0.125 -0.182,0 -0.57494,0.19393 -0.8732,0.43096 -0.29826,0.23703 -0.64653,0.43117 -0.77393,0.43144 -0.12741,2.8e-4 -0.84576,0.45415 -1.59636,1.00865 -0.75058,0.5545 -1.68793,1.16327 -2.08297,1.35281 -0.39505,0.18955 -2.22564,0.67492 -4.06797,1.07861 -1.84234,0.4037 -3.82538,0.89367 -4.40677,1.08884 -0.58139,0.19516 -1.35451,0.35484 -1.71804,0.35484 -0.88893,0 -7.15571,1.60412 -8.39959,2.15007 -0.54599,0.23963 -1.06321,0.4357 -1.14938,0.4357 -0.0862,0 -0.9157,0.31598 -1.84342,0.70217 -2.83315,1.1794 -2.56674,1.15507 -4.10717,0.37503 -1.77505,-0.89885 -3.62692,-2.28209 -5.15733,-3.85219 -1.18054,-1.21118 -1.45638,-1.68173 -1.11097,-1.89521 0.47928,-0.2962 -1.1619,-0.74941 -1.89739,-0.52396 -0.5864,0.17975 -2.56478,0.60159 -2.80961,0.59908 -0.0988,-0.001 -0.17957,-0.12599 -0.17957,-0.27773 0,-0.19118 0.1355,-0.30566 0.44123,-0.37281 0.24268,-0.0533 0.40486,-0.13329 0.36038,-0.17776 -0.0445,-0.0445 -0.009,-0.16761 0.0792,-0.27364 0.20145,-0.24274 -0.18409,-0.26822 -0.60993,-0.0403 -0.28705,0.15362 -1.18072,-0.0326 -1.4796,-0.30838 -0.17431,-0.16082 0.88528,-1.12524 1.35107,-1.2297 0.19827,-0.0445 0.67928,-0.17109 1.06892,-0.28137 0.38963,-0.11029 0.87123,-0.20053 1.07022,-0.20053 0.58284,0 0.16175,-0.2512 -0.55759,-0.33262 -0.90986,-0.103 -2.87308,-0.80739 -2.87308,-1.03085 0,-0.20844 0.31135,-0.36037 0.73849,-0.36037 0.15622,0 0.24373,-0.0652 0.19446,-0.14494 -0.0492,-0.0797 -0.0487,-0.27365 10e-4,-0.43096 0.0674,-0.21242 0.21768,-0.28603 0.58389,-0.28603 0.47583,0 0.64659,-0.17549 0.34945,-0.35913 -0.28511,-0.17621 -0.13459,-0.35913 0.29552,-0.35913 0.24155,0 0.74254,0.0715 1.11332,0.15882 1.29927,0.30611 4.69406,1.45123 5.05264,1.70433 0.19914,0.14058 0.81458,0.48307 1.36765,0.7611 1.06255,0.53415 2.23361,1.63305 3.32691,3.1219 1.21599,1.65592 2.27135,2.2852 3.51827,2.09782 0.34365,-0.0516 1.14197,-0.31709 1.77405,-0.5899 0.76237,-0.32903 1.02834,-0.4017 0.7901,-0.21587 -0.19752,0.15407 -0.7689,0.44556 -1.26971,0.64776 -2.35386,0.95035 -3.05408,0.63317 -5.81053,-2.63198 -0.61524,-0.72878 -1.42329,-1.51778 -1.79568,-1.75335 -0.69953,-0.44251 -2.88144,-1.54998 -3.76561,-1.91131 -1.25396,-0.51245 -3.82668,-1.20189 -3.9658,-1.06277 -0.16508,0.16509 0.94914,0.64667 1.86913,0.80786 1.16414,0.20397 5.40248,1.99999 4.75426,2.01464 -0.26102,0.006 -0.7306,-0.17497 -3.44769,-1.32801 -0.47406,-0.20118 -1.24979,-0.40062 -1.72385,-0.44322 -0.47406,-0.0426 -1.27502,-0.11995 -1.77991,-0.17191 -0.62065,-0.0639 -0.88811,-0.0461 -0.82574,0.0548 0.10441,0.16894 1.04966,0.47004 2.78128,0.88593 1.08828,0.26138 1.90735,0.62706 1.90735,0.85155 0,0.16052 0.75175,0.41674 1.97661,0.6737 0.65258,0.13691 1.29902,0.33739 1.43653,0.44553 0.22707,0.17855 0.21705,0.19013 -0.1091,0.12604 -0.19752,-0.0388 -1.0379,-0.24615 -1.8675,-0.46075 -1.8668,-0.48289 -2.81389,-0.49782 -4.73703,-0.0747 -1.59098,0.35007 -1.7479,0.41132 -1.4792,0.5774 0.26326,0.1627 3.39446,-0.022 4.27969,-0.25243 0.26317,-0.0685 0.71514,-0.0402 1.14923,0.0719 0.39352,0.10164 1.16799,0.26212 1.72106,0.35662 0.55307,0.0945 1.13487,0.26657 1.29288,0.38239 l 0.28731,0.21057 -0.28731,-0.0777 c -0.15801,-0.0428 -0.77896,-0.14376 -1.37988,-0.22445 -0.60092,-0.0807 -1.26773,-0.2133 -1.4818,-0.2947 -0.56276,-0.21396 -1.04265,-0.18125 -2.07116,0.14115 -1.2333,0.3866 -1.58064,0.60433 -0.74148,0.4648 0.35554,-0.0591 1.07091,-0.10749 1.58972,-0.10749 0.78233,0 1.0887,0.0773 1.79567,0.45304 0.46881,0.24917 0.83664,0.52268 0.81739,0.60781 -0.0545,0.24104 0.54643,0.55618 1.23477,0.64751 0.63497,0.0843 2.1761,0.8632 2.1761,1.09988 0,0.14834 -0.5525,-0.0378 -1.0406,-0.35054 -0.29227,-0.18727 -0.7327,-0.32399 -1.84455,-0.57255 -0.20417,-0.0456 -0.61933,-0.28017 -0.92259,-0.52117 -0.89622,-0.71222 -0.94496,-0.2996 -0.086,0.72834 1.75952,2.10575 4.84145,4.2256 6.55138,4.50625 0.57517,0.0944 2.1196,-0.27903 2.9449,-0.71207 1.08805,-0.5709 3.46316,-1.50508 4.02231,-1.58205 0.35554,-0.049 0.77573,-0.14409 0.93375,-0.21142 0.34063,-0.14515 4.31004,-1.09143 5.74615,-1.36985 0.55307,-0.10722 1.58737,-0.33118 2.29846,-0.49769 0.71108,-0.16651 2.10094,-0.46065 3.08856,-0.65364 2.7097,-0.52953 3.12868,-0.63996 4.45326,-1.17385 1.61463,-0.6508 1.82629,-0.77153 3.59135,-2.04865 1.46482,-1.05988 1.95083,-1.30367 4.12296,-2.06814 1.96843,-0.69278 4.75216,-2.33498 5.86098,-3.45756 0.86267,-0.87337 1.93932,-2.1861 1.93932,-2.36455 0,-0.22391 3.72348,-3.87106 4.21522,-4.12881 0.22462,-0.11773 0.43428,-0.18818 0.46592,-0.15655 0.0316,0.0317 -0.62082,0.65906 -1.44989,1.39429 -0.82907,0.73522 -1.5074,1.3607 -1.5074,1.38995 0,0.0293 0.63993,-0.27019 1.42207,-0.66542 1.48853,-0.7522 1.59466,-0.7922 1.59466,-0.60102 0,0.0647 -0.46867,0.36324 -1.04149,0.66347 -1.34306,0.70392 -2.4062,1.37358 -2.4062,1.51562 0,0.0616 -0.12218,0.14388 -0.27152,0.18293 -0.14933,0.039 -0.81193,0.73935 -1.47245,1.55623 -0.66051,0.81688 -1.47029,1.74597 -1.7995,2.06464 -0.82473,0.79834 -1.90959,3.00551 -2.7589,5.61301 -0.38499,1.18201 -0.69208,2.15973 -0.68241,2.17273 0.0184,0.0248 0.65405,-0.47676 3.0343,-2.39421 1.45131,-1.16912 3.53752,-2.35758 5.0695,-2.88794 0.58256,-0.20167 1.46564,-0.31981 3.04694,-0.40761 2.43318,-0.13511 3.73589,-0.36722 5.6025,-0.99823 2.72202,-0.92018 5.20406,-1.2404 6.815386,-0.87929 0.381,0.0854 0.71715,0.13081 0.747,0.10096 0.1414,-0.1414 -1.79406,-2.02406 -2.515496,-2.44689 -0.44835,-0.26277 -1.36329,-0.87013 -2.03321,-1.34968 -2.36272,-1.69134 -2.97415,-2.57627 -0.75761,-1.09652 1.40592,0.9386 1.62476,1.05777 1.3939,0.75909 -0.0863,-0.1116 -0.31254,-0.68775 -0.50279,-1.28033 -0.30067,-0.93643 -0.34098,-1.30707 -0.30807,-2.83278 0.0342,-1.584111 0.0948,-1.941509 0.62151,-3.663173 0.32099,-1.049281 0.80495,-2.344218 1.07545,-2.877628 0.5668,-1.117703 0.57952,-1.170195 0.23971,-0.988331 -0.13865,0.0742 -0.61693,0.202361 -1.06286,0.284796 -1.46411,0.270657 -2.47519,-0.261976 -3.77718,-1.989801 -0.44652,-0.592569 -0.87331,-1.09895 -0.94841,-1.125283 -0.0764,-0.02682 -0.13657,0.329979 -0.13657,0.809936 0,1.11823 -0.60821,3.231708 -1.15826,4.024797 l -0.43062,0.620888 0.59864,1.084443 c 0.32924,0.596451 0.7923,1.305041 1.02903,1.574656 0.23673,0.269615 0.38852,0.532106 0.33732,0.583306 -0.098,0.09802 -1.09437,-0.799354 -1.09437,-0.985643 0,-0.05955 -0.19394,-0.395627 -0.43096,-0.746836 -0.23703,-0.351214 -0.43096,-0.685623 -0.43096,-0.743143 0,-0.267763 -1.3533,-1.960596 -1.7182,-2.149296 -0.22586,-0.116798 -0.43266,-0.275826 -0.45956,-0.353402 -0.0879,-0.253631 -1.87002,-0.620834 -2.63155,-0.542232 -1.93295,0.199515 -3.92193,1.789178 -6.27248,5.013155 -0.58133,0.797341 -1.74631,2.150511 -2.58884,3.007051 -1.74829,1.77733 -3.19589,3.46487 -4.68801,5.46503 -1.13684,1.5239 -2.34053,2.69859 -2.73479,2.66889 -0.1393,-0.0105 -0.60564,0.1206 -1.03631,0.29131 -0.70549,0.27965 -3.14181,0.64623 -6.45737,0.97163 -1.43638,0.14097 -3.01394,0.57085 -5.17154,1.40921 -1.32822,0.51611 -2.02623,0.86853 -3.70444,1.87038 -1.91776,1.14485 -1.77416,1.06208 -3.21306,1.85187 -0.68374,0.37529 -1.29785,0.68093 -1.36471,0.67919 -0.0668,-0.002 0.23401,-0.20593 0.66856,-0.45375 0.43455,-0.24782 1.63047,-0.95012 2.6576,-1.56067 2.34349,-1.39303 3.77549,-2.10842 5.6025,-2.79886 2.77592,-1.04904 3.07956,-1.11416 7.28032,-1.56138 1.15982,-0.12347 2.39009,-0.28755 2.73393,-0.3646 0.77725,-0.17419 2.18037,-0.80786 2.41511,-1.0907 0.0965,-0.11632 0.26092,-0.21149 0.3653,-0.21149 0.20507,0 0.46874,-0.30653 2.17767,-2.53164 0.61429,-0.79982 1.72416,-2.09271 2.46637,-2.87307 0.74222,-0.78037 1.57698,-1.77439 1.855,-2.20894 0.9803,-1.53216 2.2224,-3.094277 2.85564,-3.591347 0.86678,-0.680379 2.10027,-2.111122 1.98329,-2.300414 -0.0521,-0.08434 -0.34792,-0.313143 -0.65732,-0.508456 -0.30939,-0.195313 -0.56254,-0.430945 -0.56254,-0.52362 0,-0.09268 -0.12025,-0.301963 -0.26723,-0.465074 -0.32988,-0.366075 -0.73834,-1.982412 -0.73834,-2.921699 0,-1.222188 0.3567,-2.090686 1.25889,-3.065161 0.84138,-0.908795 1.55837,-1.442172 2.1888,-1.628266 0.30333,-0.08954 0.26427,-0.01727 -0.25139,0.465211 -0.54849,0.513168 -0.61053,0.638952 -0.61053,1.237808 0,0.583365 0.046,0.684087 0.36848,0.806694 0.4762,0.18105 1.51987,0.179671 1.9994,-0.0027 0.62067,-0.23598 0.7925,-0.89994 0.7925,-3.06237 0,-1.547324 0.0559,-2.084046 0.28731,-2.756525 0.15802,-0.459292 0.2873,-0.859572 0.2873,-0.889515 0,-0.02992 -0.28687,-0.177412 -0.6375,-0.32771 -2.18523,-0.936708 -2.90095,-3.66709 -1.49637,-5.708568 0.41429,-0.602097 2.35002,-2.339875 2.60642,-2.339875 0.0726,0 -0.0682,0.227819 -0.31262,0.506268 -0.37872,0.431341 -0.43238,0.585472 -0.36261,1.041485 0.13225,0.864219 0.41243,1.181668 1.04293,1.181668 0.66532,0 0.8587,-0.196079 1.87665,-1.902752 1.56195,-2.618709 4.22537,-5.228606 6.40518,-6.276449 1.20571,-0.579592 2.81396,-0.829113 3.96464,-0.615122 0.969966,0.180387 1.412146,0.494409 1.776076,1.261355 l 0.22624,0.47677 0.97892,-0.08207 c 0.86501,-0.07252 1.08333,-0.03524 1.8763,0.320652 1.21304,0.544382 1.80846,1.420275 2.53617,3.73081 0.51412,1.632435 1.70971,4.692634 2.60907,6.678151 0.23262,0.513565 0.63509,1.547872 0.89439,2.298465 0.43673,1.264282 0.46482,1.454562 0.38151,2.585769 -0.11169,1.516913 -0.36851,2.292117 -1.09461,3.304034 -1.64689,2.295147 -2.02604,4.609579 -0.93404,5.70158 0.36569,0.365678 0.59744,0.475537 1.00325,0.475537 0.44155,0 0.64187,-0.115354 1.22669,-0.706358 0.46895,-0.473909 0.73073,-0.875725 0.79551,-1.221053 0.098,-0.52235 0.3519,-0.717517 0.3519,-0.270495 0,0.515058 0.32508,-0.08952 0.49234,-0.915625 l 0.16946,-0.836948 0.1909,1.105661 c 0.3918,2.269249 -0.0921,3.637386 -1.99693,5.646065 -0.67433,0.711088 -1.34024,1.339675 -1.4798,1.396863 -0.13956,0.05719 -0.6454,0.369957 -1.12413,0.69505 -0.47871,0.325096 -1.65742,0.924426 -2.61934,1.331846 l -1.74894,0.74076 -2.27634,-0.029 c -1.33134,-0.017 -2.351636,-0.0915 -2.457746,-0.17961 -0.21141,-0.17544 -1.75691,-0.72365 -2.04014,-0.72365 -0.29901,0 -0.24316,1.62039 0.0984,2.85279 0.45978,1.6592 0.89038,2.38124 1.75599,2.94449 2.154426,1.4019 3.733316,3.8354 3.720416,5.73415 -0.006,0.89961 -1.25652,2.91543 -2.43009,3.91764 -0.865136,0.73882 -2.887346,1.84178 -3.938996,2.14843 -0.18283,0.0533 -0.81724,0.32249 -1.40982,0.59819 -1.06676,0.49632 -1.0842,0.51337 -1.76578,1.72584 -1.60536,2.85587 -2.60092,4.253269 -4.06985,5.712559 -1.35762,1.3487 -3.04272,2.5969 -3.9757,2.9449 -0.26153,0.0975 -0.47881,0.33849 -0.62184,0.68956 -0.12093,0.29679 -0.73238,1.55505 -1.35876,2.79614 -0.97874,1.93916 -1.19937,2.51821 -1.56887,4.11719 -0.23648,1.02338 -0.42767,2.07656 -0.42485,2.34041 0.0122,1.13944 0.56075,2.60108 1.93238,5.14847 0.53954,1.00201 0.64431,1.67926 0.28135,1.81854 -0.19305,0.0741 -0.1846,0.12695 0.0624,0.39054 0.37481,0.40003 1.47805,2.80696 1.36812,2.98483 -0.0469,0.076 -0.27314,0.0969 -0.50264,0.0464 -0.37543,-0.0825 -0.41728,-0.0549 -0.41728,0.27452 0,0.32968 -0.0537,0.36488 -0.5387,0.35318 -0.29629,-0.007 -0.69701,-0.11206 -0.8905,-0.23314 -0.24835,-0.15541 -0.36803,-0.17142 -0.40701,-0.0545 -0.0776,0.2329 -0.68582,0.20601 -1.18556,-0.0524 -0.23195,-0.11995 -0.54773,-0.45933 -0.70171,-0.75418 l -0.27997,-0.5361 -0.16508,0.46101 c -0.0908,0.25355 -0.28567,0.49927 -0.43305,0.54605 -0.14737,0.0468 -0.30794,0.21102 -0.35681,0.365 -0.0957,0.30163 -0.56506,0.38043 -0.72495,0.12173 -0.14359,-0.23233 -0.38493,-2.2513 -0.36012,-3.0126 0.0245,-0.75332 -0.57905,-2.80173 -0.97548,-3.31041 -0.52446,-0.67295 -0.73837,-1.26676 -0.73837,-2.04968 0,-0.9439 0.12856,-1.31683 0.64502,-1.87112 0.69925,-0.75046 1.19675,-2.62824 1.30561,-4.92792 0.0395,-0.83466 0.12728,-1.62169 0.19504,-1.74894 0.0678,-0.12726 0.14559,-0.65157 0.17295,-1.16513 0.0461,-0.86615 0.029,-0.93031 -0.2366,-0.88616 -0.15749,0.0262 -0.49239,0.0813 -0.74423,0.12241 -0.25184,0.0411 -0.56891,0.1975 -0.70462,0.34745 -0.13571,0.14995 -0.32945,0.27264 -0.43056,0.27264 -0.1011,0 -0.85065,0.55394 -1.66566,1.23098 -0.81502,0.67704 -1.97801,1.52028 -2.58442,1.87387 l -1.10256,0.64289 -0.10013,0.93497 c -0.11726,1.09498 -0.0498,1.79039 0.35387,3.64921 0.16302,0.7506 0.39636,2.23741 0.51855,3.30404 0.12219,1.06663 0.28808,2.31521 0.36863,2.77463 0.4733,2.69922 0.87112,6.74206 0.93558,9.50777 0.0443,1.90185 0.1452,3.30872 0.27298,3.80683 0.11146,0.43455 0.24586,1.28257 0.29865,1.88449 0.0828,0.94391 0.0459,1.25007 -0.26845,2.22663 -0.20044,0.62274 -0.69751,2.19887 -1.1046,3.50253 -1.48288,4.74878 -2.42305,7.18714 -3.83706,9.95149 l -0.82482,1.61251 -0.13066,5.88988 -0.13065,5.88986 0.3843,2.08299 c 0.73181,3.96664 1.23825,5.52135 2.7609,8.47557 0.75336,1.46168 1.58902,3.19646 1.85702,3.85506 0.66237,1.6278 1.12893,2.17175 2.46609,2.87517 1.52806,0.80383 1.8675,1.04968 2.27276,1.64607 0.47643,0.70112 0.46054,1.20527 -0.0451,1.4311 -0.21727,0.097 -0.49201,0.28507 -0.61053,0.41782 -0.47567,0.53284 -3.62046,1.22157 -4.74057,1.03822 z m 3.80477,-1.44411 c 1.36472,-0.46827 1.49508,-0.61405 1.14086,-1.27563 -0.47646,-0.88985 -0.6803,-0.99301 -2.14991,-1.08796 -2.18407,-0.1411 -2.95675,-0.63527 -4.07086,-2.60354 -0.59388,-1.04921 -0.82539,-1.22327 -3.12662,-2.35082 -1.52597,-0.7477 -2.08669,-1.10973 -2.82618,-1.82481 -0.60991,-0.58976 -0.95714,-1.05025 -1.02467,-1.35892 -0.0562,-0.25679 -0.15069,-0.46688 -0.21003,-0.46688 -0.0593,0 -0.32786,0.30631 -0.59671,0.68069 -0.41889,0.58329 -0.48884,0.79757 -0.48884,1.49754 0,0.6859 0.0716,0.91562 0.44639,1.43306 0.48395,0.66807 1.69103,1.47103 3.10874,2.06797 1.18088,0.49721 2.26692,1.05963 2.59599,1.34435 0.39766,0.34405 0.67172,0.95346 0.8095,1.79998 0.1993,1.22454 0.48605,1.75485 1.1252,2.08092 1.24673,0.63603 3.51966,0.66367 5.26714,0.0641 z m -15.29168,-0.80505 c 0.18045,-0.4148 0.33385,-1.00558 0.34091,-1.31282 0.0124,-0.53859 -0.0104,-0.5662 -0.63361,-0.7691 -2.14883,-0.69957 -3.15638,-1.72344 -3.15958,-3.21078 -4.3e-4,-0.2049 0.13327,-0.75438 0.29714,-1.22106 0.16387,-0.46668 0.33338,-1.33333 0.37668,-1.9259 0.0687,-0.94012 0.0238,-1.24216 -0.35195,-2.37029 -0.23687,-0.71109 -0.54315,-1.77771 -0.68062,-2.37029 l -0.24995,-1.0774 -0.60057,0.57461 c -0.33031,0.31604 -0.85189,0.89093 -1.15906,1.27753 -0.53872,0.67805 -0.55847,0.74171 -0.55847,1.79964 0,0.747 0.0783,1.25374 0.24566,1.58916 0.55804,1.11863 0.83454,2.96103 0.60177,4.00979 -0.0596,0.26833 -0.29496,0.88245 -0.52311,1.36471 -0.22816,0.48228 -0.41488,1.01346 -0.41494,1.18043 -1.3e-4,0.33394 1.03736,1.37243 1.89888,1.90073 0.5048,0.30953 3.50591,1.28752 4.00904,1.30643 0.14828,0.006 0.35361,-0.26686 0.56178,-0.74539 z m 5.20483,-0.57453 c -0.0182,-0.65187 -0.0724,-1.71712 -0.12037,-2.3672 l -0.0872,-1.18197 -0.80888,-0.50596 c -1.10016,-0.68816 -1.29663,-0.66349 -0.84561,0.1061 0.55846,0.95296 1.39244,3.59902 1.39244,4.41796 0,0.58622 0.0456,0.71614 0.2514,0.71621 0.22179,9e-5 0.24749,-0.13946 0.21825,-1.18514 z m 8.33951,-1.95832 c -0.76421,-0.55358 -1.53036,-1.63601 -1.84226,-2.60277 -0.1402,-0.43456 -0.98277,-2.22298 -1.87238,-3.97426 -0.91859,-1.80833 -1.66036,-3.4532 -1.71672,-3.80683 -0.0546,-0.34247 -0.26001,-1.26777 -0.4565,-2.05623 -0.42573,-1.70844 -0.73923,-4.11045 -0.76909,-5.89278 -0.0119,-0.71108 0.0476,-3.87865 0.13212,-7.03903 0.0846,-3.16039 0.1135,-7.65316 0.0643,-9.98394 -0.0984,-4.66093 -0.0176,-5.45103 0.77011,-7.5287 0.33586,-0.88586 0.38694,-1.23413 0.39173,-2.67073 0.005,-1.58777 -0.0126,-1.68677 -0.45959,-2.54575 -0.46503,-0.89363 -0.59193,-1.47655 -0.32143,-1.47655 0.079,0 0.14365,0.10078 0.14365,0.22396 0,0.12317 0.0646,0.18401 0.14365,0.13517 0.079,-0.0488 0.14506,-0.29506 0.14676,-0.54717 0.004,-0.5425 0.73656,-5.39027 1.50267,-9.93956 0.3702,-2.19832 0.72549,-5.50209 0.6047,-5.62289 -0.0418,-0.0418 -0.29133,0.0215 -0.55453,0.14068 -1.45602,0.65922 -3.65233,1.29124 -5.36277,1.54321 -2.76672,0.40757 -5.01131,0.36537 -7.29043,-0.13706 -2.02167,-0.44568 -2.04783,-0.43688 -1.56372,0.52636 0.14733,0.29313 0.35092,0.79155 0.45244,1.10759 0.10151,0.31604 1.09958,2.41698 2.21794,4.66875 1.11835,2.25177 2.21519,4.54664 2.43741,5.09971 0.22223,0.55307 0.45911,1.13486 0.5264,1.29289 0.48521,1.13937 1.2549,3.24128 1.32836,3.62749 0.22837,1.2007 -0.46713,4.13482 -1.71104,7.21837 -0.36949,0.91595 -0.76413,2.35568 -0.94503,3.44769 -0.2731,1.64856 -0.23924,5.37924 0.0665,7.32634 0.48656,3.09882 2.39332,9.93174 3.92053,14.04938 1.02141,2.75388 1.19346,4.52606 0.56065,5.77485 -0.28308,0.55863 -0.35913,0.9253 -0.35913,1.73143 v 1.02271 l 0.81193,0.76779 c 0.57991,0.54838 1.35676,1.04113 2.7185,1.72427 2.28784,1.14776 2.86025,1.61349 3.81786,3.10634 0.82408,1.28464 1.39412,1.68672 2.40581,1.69687 l 0.63208,0.006 -0.57145,-0.41395 z m -13.83704,-0.23821 c 0,-0.0427 -0.14086,-0.34971 -0.31304,-0.68235 -0.42878,-0.82842 -0.523,-2.71541 -0.20717,-4.14858 0.12765,-0.57924 0.32447,-1.89353 0.43737,-2.92065 0.43121,-3.92286 0.75028,-5.22067 1.89631,-7.71312 0.42476,-0.92381 0.77262,-1.79651 0.77301,-1.93933 4.3e-4,-0.14282 -0.0954,-0.55057 -0.21296,-0.90611 -0.82068,-2.48294 -1.2889,-4.03114 -1.51006,-4.99323 -0.5485,-2.38605 -0.90786,-3.63871 -1.01187,-3.5271 -0.12526,0.13444 -0.22708,0.55641 -1.05064,4.35437 -0.11136,0.51357 -0.27775,1.93574 -0.36976,3.16039 -0.23669,3.15061 -0.57752,4.88728 -1.21187,6.17493 -0.60736,1.23285 -0.63682,1.66137 -0.21745,3.16256 1.15596,4.13795 1.16293,4.20673 0.62821,6.20266 -0.502,1.87379 -0.4839,2.05932 0.27165,2.78326 0.62777,0.60151 2.09827,1.29692 2.09827,0.9923 z m -8.76141,-2.14361 c 0.45003,-0.44498 0.66558,-0.7211 1.7397,-2.22863 0.72251,-1.01404 0.85361,-1.28721 0.78424,-1.63406 -0.0458,-0.22908 -0.0833,-0.50536 -0.0833,-0.61401 0,-0.44183 -0.30861,-0.14667 -0.73219,0.70031 -0.64112,1.28193 -1.39883,2.52634 -1.96431,3.22608 -0.26863,0.3324 -0.44677,0.67179 -0.39585,0.75418 0.13807,0.22339 0.25734,0.18607 0.65171,-0.20387 z m 17.14904,-28.41302 c 0.18667,-0.41479 0.54473,-1.20669 0.79569,-1.75976 1.18519,-2.61186 1.56291,-3.61983 2.74542,-7.32634 1.49666,-4.69121 1.55085,-4.93006 1.4199,-6.25822 -0.11655,-1.18225 -0.34088,-2.0898 -0.71925,-2.91 -0.1575,-0.34137 -0.15429,-0.42559 0.0203,-0.53372 0.29763,-0.1843 0.26065,-4.65035 -0.0582,-7.03373 -0.13215,-0.98762 -0.36969,-2.76533 -0.5279,-3.95048 -0.1582,-1.18514 -0.35162,-2.76892 -0.42983,-3.51952 -0.15266,-1.46508 -0.58565,-3.91328 -0.67611,-3.82282 -0.0595,0.0595 -0.21535,1.62416 -0.46653,4.68475 -0.0875,1.06663 -0.25274,2.45648 -0.36711,3.08855 -0.11437,0.63208 -0.31167,1.91759 -0.43845,2.85669 -0.26996,1.99984 -0.31819,2.29042 -0.49144,2.96129 -0.0714,0.27653 -0.27275,1.65665 -0.44742,3.06693 -0.31302,2.52728 -0.31373,2.57478 -0.049,3.30404 0.2002,0.55161 0.26926,1.14201 0.27139,2.32009 0.003,1.48923 -0.0333,1.68769 -0.62524,3.44769 l -0.62811,1.8675 0.007,4.98331 c 0.006,4.49546 0.0453,5.28794 0.26041,5.28794 0.0358,0 0.21789,-0.33939 0.40455,-0.75419 z m 16.03352,-27.69855 c 0,-0.25743 -0.61147,-1.60637 -1.03091,-2.27428 -0.21813,-0.34735 -0.36556,-0.68178 -0.32761,-0.74319 0.038,-0.0614 -0.23881,-0.35514 -0.61504,-0.65276 -1.71788,-1.35897 -2.7145,-2.72065 -2.98455,-4.07779 -0.14688,-0.73814 0.13045,-0.37492 0.43873,0.57461 0.21065,0.64882 0.46929,1.00051 1.44641,1.96682 1.22062,1.20712 1.8737,1.72245 2.01007,1.58608 0.0837,-0.0837 -0.40202,-1.10439 -0.80213,-1.6854 -0.36439,-0.52913 -1.39396,-3.14087 -1.50351,-3.81398 -0.23542,-1.44649 0.61158,-4.36892 2.20457,-7.6065 1.4666,-2.98071 1.59857,-3.31947 1.23939,-3.18164 -0.13477,0.0517 -1.28039,0.33274 -2.54582,0.62449 -1.26543,0.29176 -2.3191,0.59861 -2.34149,0.68189 -0.0224,0.0833 -0.11581,1.02411 -0.20765,2.09074 -0.14633,1.69965 -0.46828,3.75258 -0.86172,5.49476 -0.10743,0.47568 -0.0898,0.5387 0.15038,0.5387 0.4025,0 0.33007,0.20242 -0.1353,0.37807 -0.22403,0.0846 -0.59573,0.40093 -0.826,0.70303 -0.33989,0.44589 -0.41705,0.6865 -0.40999,1.27837 0.005,0.401 0.10173,0.89839 0.21548,1.10532 0.11373,0.20693 0.35342,0.643 0.53262,0.96906 0.58397,1.06249 1.03812,3.09693 1.03852,4.65226 0,1.11978 0.0416,1.40062 0.20616,1.40062 0.23226,0 0.31075,-0.20737 0.4489,-1.18602 0.14252,-1.00953 -0.0461,-2.17149 -0.44882,-2.76494 -0.36666,-0.5403 -0.43639,-0.78961 -0.22085,-0.78961 0.2297,0 0.99667,1.34083 1.52227,2.66124 0.5235,1.31518 0.95541,1.86327 1.59476,2.02373 0.50141,0.12584 0.56694,-0.006 0.23641,-0.47483 -0.15632,-0.22182 -0.42414,-0.67976 -0.59515,-1.01763 -0.171,-0.33787 -0.65158,-1.01663 -1.06794,-1.50836 -0.75927,-0.89669 -1.05471,-1.39685 -0.82514,-1.39685 0.19807,0 1.6898,1.91655 2.25831,2.90142 0.5948,1.03043 1.02677,1.55185 1.2856,1.55185 0.22962,0 -0.45992,-1.43673 -1.22376,-2.54986 -0.59505,-0.86714 -1.46334,-1.75975 -1.7118,-1.75975 -0.16999,0 -0.37583,-0.55604 -0.25176,-0.6801 0.0461,-0.0461 0.58534,0.42749 1.19826,1.05246 0.8665,0.8835 1.28431,1.46384 1.87803,2.6086 0.68388,1.31856 1.03207,1.76368 1.03207,1.31937 z m -19.87645,-5.37879 c 1.82349,-0.29229 5.73759,-1.71422 5.87173,-2.13312 0.11198,-0.34973 0.20954,-3.9711 0.10696,-3.97084 -0.0597,1.5e-4 -0.81957,0.28076 -1.68868,0.62357 -2.41614,0.95303 -3.45131,1.22328 -5.15661,1.34626 l -1.56526,0.11288 -0.64087,1.6161 c -0.35248,0.88886 -0.7024,1.61611 -0.77759,1.61611 -0.0752,0 -0.0957,-0.0664 -0.0456,-0.14746 0.0501,-0.0811 -0.0797,-0.35584 -0.2885,-0.61053 -0.2088,-0.25469 -0.69469,-0.95471 -1.07975,-1.55561 l -0.70011,-1.09254 -0.77371,-0.0909 c -0.96546,-0.11347 -2.72703,-0.55327 -3.46268,-0.86451 -0.30593,-0.12943 -0.61735,-0.23533 -0.69203,-0.23533 -0.14931,0 -0.13896,0.0436 0.47779,2.01115 0.74323,2.37111 0.84483,2.58339 1.33153,2.7819 0.44928,0.18326 3.18054,0.75796 4.10771,0.86434 0.79839,0.0916 3.69745,-0.0666 4.97565,-0.27143 z m -3.45699,-2.33332 c 0.49595,-1.11665 0.6138,-1.4171 0.78921,-2.01208 0.0991,-0.3363 0.15047,-0.64125 0.11405,-0.67767 -0.0961,-0.0961 -3.44391,-0.39437 -3.52433,-0.31396 -0.0372,0.0373 0.29249,0.66534 0.7328,1.39571 0.44031,0.73037 0.80056,1.36255 0.80056,1.40485 0,0.12355 0.61389,0.74185 0.73657,0.74185 0.0615,0 0.21954,-0.24241 0.35114,-0.5387 z m 4.93078,-2.43287 c 1.10693,-0.31614 4.01254,-1.43245 4.4152,-1.69628 0.31515,-0.20649 0.34027,-0.3158 0.33926,-1.47666 -0.002,-2.13208 -0.51757,-5.66805 -0.95178,-6.5258 -0.108,-0.21336 -0.19636,-0.49632 -0.19636,-0.62882 0,-0.42834 -1.2085,-2.74205 -1.8675,-3.57538 -0.81911,-1.035799 -2.19413,-2.228719 -3.11705,-2.704239 -0.56873,-0.29303 -1.12227,-0.53278 -1.23009,-0.53278 -0.10782,0 -0.36359,0.17777 -0.56839,0.39505 -0.90777,0.96309 -1.78964,3.408769 -2.12103,5.882239 -0.14497,1.08212 -0.25969,9.75036 -0.13064,9.87214 0.031,0.0292 0.4442,0.0896 0.91825,0.13421 0.47407,0.0446 0.88635,0.0837 0.9162,0.087 0.0299,0.003 0.0116,0.27298 -0.0406,0.59938 l -0.0949,0.59345 1.47716,-0.10105 c 0.81245,-0.0556 1.82597,-0.20068 2.25229,-0.32243 z m -7.95834,-0.33348 c -0.32496,-0.62841 -0.27151,-0.71725 0.43148,-0.71725 0.60851,0 0.64667,-0.0232 0.65029,-0.39505 0.078,-8.03129 0.13385,-9.51212 0.41926,-11.12312 0.34434,-1.943669 0.73602,-3.087409 1.36859,-3.996449 0.78745,-1.1316 0.80922,-1.06069 -0.29672,-0.96671 -2.61699,0.22239 -5.95899,2.05038 -6.82669,3.734049 -1.28877,2.50068 -1.60424,8.55964 -0.6185,11.87899 0.20528,0.69126 0.2663,0.75596 1.0371,1.09977 1.14825,0.51218 3.60672,1.10491 3.94293,0.95064 0.059,-0.0271 0.0105,-0.23625 -0.10774,-0.46487 z m 2.24057,-5.45961 c 0.0636,-3.5876 0.1445,-5.1028 0.31832,-5.95985 0.50151,-2.47273 0.85635,-3.476539 1.63935,-4.637539 l 0.60869,-0.90253 -0.39205,-0.15035 c -0.35718,-0.13697 -0.43676,-0.10016 -0.89484,0.414 -0.70821,0.79492 -1.11219,1.67612 -1.51314,3.300629 -0.48351,1.95902 -0.63901,4.0664 -0.64043,8.67963 -0.001,4.10409 0.008,4.16816 0.57338,4.09464 0.18476,-0.024 0.22764,-0.71389 0.30072,-4.83863 z m 11.94207,1.35293 c 0.48701,-0.20498 1.36199,-0.77062 1.9444,-1.25697 1.41133,-1.17857 3.1708,-2.50603 3.6744,-2.77221 0.22421,-0.1185 1.58174,-0.46204 3.01673,-0.7634 4.99396,-1.0488 5.89249,-1.43597 7.93858,-3.42065 1.48337,-1.43883 2.6152,-2.910449 3.50591,-4.558399 0.34165,-0.63208 0.77214,-1.39036 0.95668,-1.68508 0.18452,-0.29471 0.33551,-0.58709 0.33551,-0.64971 0,-0.0626 0.22625,-0.45743 0.50278,-0.87732 0.27654,-0.4199 0.50279,-0.82245 0.50279,-0.89456 0,-0.0721 0.0722,-0.13112 0.1604,-0.13112 0.0936,0 0.13182,0.1495 0.0917,0.35914 -0.083,0.43425 -0.0422,0.44087 0.42961,0.0697 0.20237,-0.15918 0.92365,-0.45825 1.60285,-0.66461 1.58068,-0.48023 3.312406,-1.34853 3.938836,-1.97497 0.26957,-0.26955 0.74065,-0.90056 1.04687,-1.40224 0.44739,-0.73298 0.56145,-1.06454 0.5807,-1.68809 0.0283,-0.91765 -0.12705,-1.31509 -0.67147,-1.71759 -0.66222,-0.48962 -1.59528,-0.64547 -3.279636,-0.54783 -1.53898,0.0892 -3.16577,0.43146 -4.60576,0.96897 -1.39248,0.51978 -3.16603,0.85376 -4.94655,0.93151 -0.96016,0.0419 -2.13363,0.14805 -2.60768,0.23582 -1.6011,0.29645 -4.32913,1.69171 -5.81799,2.97563 -0.43455,0.37474 -1.27492,1.04602 -1.86749,1.49174 -0.59258,0.44572 -1.46527,1.11277 -1.93933,1.48234 -0.47406,0.36956 -1.21747,0.83059 -1.65202,1.02451 -0.74271,0.33144 -0.88919,0.3469 -2.44211,0.25775 -0.90861,-0.0522 -3.08751,-0.25326 -4.842,-0.4469 -3.74484,-0.41331 -5.06565,-0.38391 -6.75709,0.15041 -2.13224,0.67358 -4.46795,2.24862 -5.5422,3.73729 l -0.31043,0.43019 0.64533,-0.40142 c 2.40673,-1.49706 5.59697,-2.21367 7.12812,-1.60116 2.95078,1.18042 5.22087,3.19991 6.28982,5.595459 0.36836,0.82551 1.00382,2.71652 1.23098,3.66318 0.22303,0.92943 0.56738,3.28307 0.57272,3.91456 0.003,0.29629 0.0711,0.5387 0.15254,0.5387 0.0814,0 0.54645,-0.16771 1.03346,-0.37269 z M 104.43983,75.335661 c 0.94603,-0.14557 2.87862,-0.794069 4.12165,-1.38306 0.87675,-0.415433 2.35134,-1.434234 2.89911,-2.003 0.92103,-0.956346 1.93354,-3.331366 1.52725,-3.582456 -0.0982,-0.06067 -0.12107,-0.03475 -0.0586,0.06626 0.0564,0.09121 0.0271,0.165847 -0.065,0.165847 -0.0924,0 -0.12911,0.10001 -0.0819,0.222944 0.0491,0.127841 0.025,0.185502 -0.0565,0.135176 -0.12781,-0.07899 -0.20404,0.110891 -0.15901,0.396067 0.009,0.05926 -0.0315,0.09507 -0.0907,0.0796 -0.0593,-0.01547 -0.34842,0.204803 -0.64259,0.489507 -0.94971,0.919171 -2.22227,0.905266 -3.02544,-0.03307 -1.27516,-1.489734 -0.95186,-3.809748 0.87926,-6.309563 0.72942,-0.995791 0.88396,-1.312126 0.96744,-1.980251 0.11823,-0.946187 -0.0314,-2.82063 -0.23058,-2.888888 -0.0773,-0.0265 -0.10713,-0.102318 -0.0663,-0.168487 0.14514,-0.234855 -1.43536,-4.316015 -1.77979,-4.595735 -0.0486,-0.03953 -0.1009,-0.136468 -0.11613,-0.215478 -0.0153,-0.07901 -0.31779,-0.919382 -0.67234,-1.867497 -0.35455,-0.948116 -0.82197,-2.29486 -1.0387,-2.992765 -0.64958,-2.091788 -1.6216,-3.044437 -3.26307,-3.198041 -0.4094,-0.03833 -0.95171,-0.09488 -1.20513,-0.125702 -0.45485,-0.05533 -0.47008,-0.03708 -1.18514,1.419841 -0.89491,1.823335 -0.93743,2.398241 -0.27488,3.715618 0.24721,0.491554 0.49112,0.926061 0.54202,0.965565 0.0509,0.03953 0.20933,0.255205 0.35208,0.479338 0.14275,0.224132 0.28774,0.379338 0.32217,0.344899 0.0812,-0.0812 2.21247,1.98024 2.21419,2.141663 0.002,0.06746 0.16032,0.445882 0.35466,0.840927 0.23583,0.47943 0.35482,0.969046 0.35781,1.472452 0.005,0.801771 0.14858,0.928325 0.5954,0.523957 0.37852,-0.342548 0.59298,-0.202485 0.36425,0.23788 -0.1048,0.201736 -0.19501,0.663803 -0.2005,1.026826 -0.01,0.660534 -0.76527,2.423673 -1.30585,3.048432 -0.18597,0.214919 -0.19116,0.25002 -0.0234,0.158442 0.11851,-0.06471 0.073,0.0209 -0.10112,0.19022 -0.17414,0.169328 -0.36076,0.55054 -0.41472,0.847134 -0.27071,1.488034 -1.06251,2.826868 -2.77128,4.685852 -0.64383,0.70043 -1.408146,1.698328 -1.698506,2.217544 -0.68536,1.225522 -1.86414,4.769043 -1.58648,4.769043 0.0539,0 1.93485,0.426169 2.837106,0.642789 1.00243,0.24067 2.45588,0.26381 3.7793,0.0602 z M 91.527434,70.953907 c 0.52765,-0.20248 1.30396,-2.630588 1.30396,-4.078505 0,-0.999271 -0.0512,-1.18157 -0.70501,-2.513937 -1.13211,-2.306772 -1.37417,-3.593124 -0.95843,-5.093353 l 0.27355,-0.98711 -0.3502,-0.0879 c -0.38201,-0.09587 -0.91751,-0.565921 -0.91751,-0.805359 0,-0.09382 0.18868,-0.114767 0.50279,-0.05584 0.44564,0.0836 0.50279,0.05985 0.50279,-0.208973 0,-0.25166 -0.0868,-0.303294 -0.50993,-0.303294 -0.28045,0 -0.7168,0.108149 -0.96966,0.240329 -0.25285,0.132185 -0.76279,0.23668 -1.13319,0.232217 -0.65141,-0.0078 -0.6808,0.01026 -0.89783,0.552673 -0.16553,0.413712 -0.22439,1.0815 -0.22439,2.546204 0,2.166149 -0.18933,3.120069 -0.73443,3.700296 -0.17668,0.188065 -0.26148,0.342543 -0.18845,0.343293 0.073,5.42e-4 -0.14928,0.170391 -0.49402,0.376982 -0.9049,0.542281 -2.27006,0.639647 -2.8799,0.2054 -0.44923,-0.319891 -0.68194,-0.851395 -0.60148,-1.373837 0.0434,-0.281505 0.0383,-0.281874 -0.25299,-0.0183 -0.80624,0.729586 -0.97104,2.813648 -0.32287,4.083017 0.38664,0.757216 1.22442,1.702595 1.74937,1.974056 0.35313,0.182613 0.47592,0.167634 1.26963,-0.154869 1.3989,-0.56843 2.21313,-0.697249 3.19101,-0.504862 1.15921,0.228064 2.25391,0.824856 2.70111,1.47255 0.42767,0.619439 0.35778,0.569781 0.64608,0.459146 z m 7.16176,-2.151658 c 1.673146,-0.26494 4.535926,-3.813966 4.890316,-6.0626 0.0405,-0.256763 0.29646,-0.804946 0.56887,-1.218186 1.11983,-1.698718 1.54481,-2.924158 1.10779,-3.194256 -0.26285,-0.162444 -0.71478,0.08561 -0.80406,0.441331 -0.11969,0.476884 -0.3439,0.441761 -0.3439,-0.05386 0,-0.377921 -0.0591,-0.417588 -0.9354,-0.627246 -0.72746,-0.174051 -0.90079,-0.182103 -0.77972,-0.03621 0.0856,0.103175 0.13486,0.368088 0.10941,0.588686 -0.0641,0.555008 -0.70135,0.788609 -1.11935,0.410314 -0.36638,-0.331565 -0.36736,-0.453424 -0.004,-0.548346 0.29829,-0.07801 0.39067,-0.452158 0.14859,-0.601772 -0.0763,-0.04718 -0.40578,0.05049 -0.7322,0.21702 -0.3264,0.166521 -0.62989,0.26633 -0.67442,0.221798 -0.146996,-0.146997 0.45764,-0.694447 1.06928,-0.968177 0.64813,-0.29004 1.12117,-0.244802 2.48509,0.237663 0.59265,0.209647 0.65809,0.20906 0.81631,-0.0073 0.47687,-0.652173 -0.32943,-2.463188 -1.60428,-3.603299 -1.47643,-1.320384 -1.67963,-1.573727 -2.35601,-2.937449 l -0.692396,-1.396006 -0.23022,0.482769 c -0.34915,0.732176 -1.22354,1.627745 -1.95562,2.002979 -0.36055,0.184801 -1.04343,0.713096 -1.51748,1.173985 -0.47406,0.460883 -1.18514,0.994868 -1.58019,1.18663 -0.82452,0.400231 -1.50837,0.873135 -1.50837,1.043071 0,0.06415 0.24242,0.116325 0.5387,0.115945 0.70232,-0.0011 2.62169,0.697308 2.62169,0.953681 0,0.288232 -0.29569,0.2425 -1.23962,-0.19173 -1.08496,-0.499117 -2.04555,-0.551821 -2.88298,-0.158187 -0.49221,0.23137 -0.62324,0.365054 -0.58945,0.601397 0.0484,0.338688 0.17339,0.346713 1.15661,0.07425 0.95934,-0.265836 1.87816,-0.01602 2.54064,0.69082 0.56326,0.600968 0.4127,0.770361 -0.29905,0.33644 -0.5744,-0.350193 -0.71666,-0.368762 -0.60549,-0.07903 0.27975,0.728994 -0.54042,1.365655 -1.10318,0.856357 -0.36326,-0.328736 -0.36043,-0.6412 0.006,-0.6412 0.19154,0 0.28731,-0.09577 0.28731,-0.287309 0,-0.359928 -0.31663,-0.365689 -1.0774,-0.0196 -0.5641,0.256633 -0.5795,0.283823 -0.84178,1.486574 -0.29313,1.344143 -0.25864,1.887711 0.21681,3.417243 0.44678,1.437275 1.05471,2.4541 2.44898,4.096227 1.8224,2.146337 2.26606,2.34474 4.46475,1.996577 z m -1.76419,-2.412558 c -0.27682,-0.0959 -0.80203,-0.490523 -1.16712,-0.876936 l -0.66381,-0.702569 0.44886,-0.250302 c 0.95978,-0.535228 1.06212,-0.556756 1.59266,-0.335078 0.39335,0.164355 0.56647,0.174535 0.77314,0.04545 0.39333,-0.245633 1.01364,-0.03697 1.17841,0.396424 0.0772,0.202958 0.26882,0.402626 0.42588,0.443699 0.35883,0.09384 0.36262,0.220414 0.012,0.402159 -0.15045,0.07799 -0.48983,0.310905 -0.75419,0.517582 -0.59977,0.468908 -1.19538,0.58493 -1.84588,0.359565 z m 1.63454,-0.531363 c 0.49242,-0.387341 0.36375,-0.569206 -0.38597,-0.545523 -0.33087,0.01042 -0.98947,-0.03203 -1.46353,-0.09442 -0.8069,-0.106183 -0.84882,-0.09756 -0.65668,0.135095 0.31309,0.379122 1.17869,0.790211 1.6788,0.797308 0.24613,0.0033 0.61845,-0.128113 0.82738,-0.292457 z m 0.23348,-1.055374 c 0,-0.265114 -0.41443,-0.353299 -0.82592,-0.175745 -0.22262,0.09606 -0.49858,0.08153 -0.88716,-0.04669 -0.5016,-0.165544 -1.17446,-0.113785 -0.98491,0.07576 0.12353,0.123531 1.29869,0.31937 2.01564,0.335908 0.50254,0.01157 0.68235,-0.03828 0.68235,-0.18921 z m -2.14229,-2.794204 c -0.27716,-0.389226 -0.28178,-0.450291 -0.0793,-1.044635 0.1183,-0.347185 0.30585,-1.050015 0.41681,-1.561853 0.18372,-0.847595 0.20274,-0.878835 0.21314,-0.350258 0.006,0.319191 -0.0855,0.952627 -0.20406,1.407635 -0.11851,0.455003 -0.21548,0.945504 -0.21548,1.089992 0,0.144494 0.097,0.343184 0.21548,0.441543 0.11852,0.09836 0.21548,0.235562 0.21548,0.304896 0,0.255542 -0.27602,0.114458 -0.5621,-0.28732 z m 1.88791,0.09914 c 0.0888,-0.266363 0.39804,-0.310542 0.39804,-0.05686 0,0.125099 -0.10235,0.227455 -0.22745,0.227455 -0.12511,0 -0.20186,-0.07677 -0.17059,-0.170593 z m 4.635816,-5.441652 c -0.53361,-0.341804 -1.13785,-0.3511 -2.47614,-0.03811 -0.989456,0.231413 -1.398626,0.198744 -1.105616,-0.08828 0.21552,-0.211124 2.359316,-0.725796 3.023176,-0.725796 0.44491,0 0.72712,0.09992 1.05036,0.3719 0.80003,0.673196 0.40765,1.0564 -0.49178,0.480277 z m -13.743696,-0.400774 0.47801,-0.254825 -0.60353,-0.3994 c -0.60134,-0.397945 -0.60555,-0.398493 -1.15648,-0.150053 -0.39578,0.178471 -0.73779,0.224007 -1.20328,0.160201 -0.35769,-0.04903 -0.65034,-0.06245 -0.65034,-0.02986 0,0.03263 0.20135,0.202664 0.44744,0.377899 0.81134,0.577725 1.92887,0.700789 2.68818,0.296019 z m 3.19035,-1.169674 c 0.0874,0 0.24941,-0.09044 0.35995,-0.20097 0.17219,-0.172195 0.15179,-0.213317 -0.1425,-0.287179 -0.46623,-0.117021 -0.72743,0.0049 -0.92147,0.430983 -0.2329,0.511203 -0.20723,0.550088 0.19097,0.289171 0.19476,-0.127602 0.42562,-0.232005 0.51305,-0.232005 z m -1.38046,-0.07183 c 0.32546,-0.431135 0.27835,-0.502787 -0.33063,-0.502787 -0.71274,0 -1.4545,0.147838 -1.4545,0.289899 0,0.147062 0.98548,0.534501 1.31085,0.515346 0.14157,-0.0083 0.35499,-0.144439 0.47428,-0.302458 z m -3.55165,-0.244569 c 0.221,-0.09501 0.42092,-0.184139 0.44427,-0.198071 0.0233,-0.01395 -0.15443,-0.359233 -0.39506,-0.767331 -0.24062,-0.408098 -0.43749,-0.796124 -0.43749,-0.862281 0,-0.06616 -0.21428,-0.28371 -0.47615,-0.483459 -0.30551,-0.233026 -0.54275,-0.585407 -0.66193,-0.98326 l -0.18579,-0.62008 -0.26394,0.325957 c -0.3123,0.38568 -0.49221,1.413765 -0.37442,2.139632 0.1056,0.650766 0.69114,1.272279 1.36877,1.4529 0.2869,0.07647 0.53475,0.145721 0.55078,0.153887 0.016,0.0081 0.20998,-0.06288 0.43096,-0.157894 z m 3.13123,-1.09326 c 1.20856,-0.05626 1.65202,-0.182071 1.65202,-0.468663 0,-0.06561 -0.31292,-0.08223 -0.69538,-0.03692 -0.39295,0.04653 -0.8217,0.01477 -0.9858,-0.07306 -0.15971,-0.08548 -0.50939,-0.193771 -0.77706,-0.240644 -0.26766,-0.04686 -0.73076,-0.13984 -1.02911,-0.20659 -0.49655,-0.111091 -1.10956,-0.06184 -1.10956,0.08915 0,0.136512 0.47902,0.996996 0.68712,1.234301 0.20933,0.238699 0.24198,0.239123 0.5932,0.0076 0.25739,-0.169648 0.76927,-0.263496 1.66457,-0.305178 z m 3.66318,0.07506 c 0.35,-0.02937 1.58019,-0.737915 1.58019,-0.910153 0,-0.174703 -1.38723,0.120914 -2.11889,0.451523 -0.85688,0.3872 -1.02661,0.73141 -0.28731,0.582671 0.25678,-0.05163 0.62849,-0.107476 0.82601,-0.124041 z m 0.21548,-1.511446 c 0.39505,-0.08483 1.02004,-0.193435 1.38887,-0.241333 0.77787,-0.10102 0.78904,-0.112504 1.39801,-1.43772 l 0.46211,-1.005581 -0.54709,0.52336 c -0.32308,0.309065 -0.91885,0.656668 -1.45503,0.848941 -1.02583,0.367861 -1.93746,0.973911 -2.19667,1.460355 -0.14792,0.277591 -0.14358,0.303137 0.0285,0.166977 0.11169,-0.08842 0.52631,-0.230164 0.92136,-0.314999 z m -1.7382,-0.351746 c 0.24492,-0.172461 0.60693,-0.462887 0.80445,-0.645381 0.39121,-0.361438 2.03097,-1.184719 2.35964,-1.184719 0.34608,0 1.06204,-0.703764 1.15733,-1.137619 0.0497,-0.226375 0.28249,-0.714476 0.51726,-1.084676 0.35965,-0.567121 0.60152,-0.752965 1.53626,-1.180468 1.055876,-0.4829 1.899506,-1.095302 1.899506,-1.378892 0,-0.342712 -0.48231,-1.085426 -0.79837,-1.229431 -0.487016,-0.221901 -2.140466,-0.231663 -3.008456,-0.01775 -0.39505,0.09735 -1.24147,0.428887 -1.88093,0.736742 -1.90621,0.917694 -4.04845,3.117989 -5.36227,5.507592 -0.26064,0.474055 -0.63521,1.034194 -0.83238,1.244742 l -0.35847,0.382813 0.76933,0.09705 c 0.42313,0.05337 0.96327,0.177249 1.2003,0.275277 0.53242,0.220197 1.36511,0.05954 1.9968,-0.385261 z m 5.70879,-1.207208 c 0.20858,-0.224073 0.51565,-0.67957 0.68236,-1.012215 0.33654,-0.671497 0.40882,-1.126174 0.11842,-0.744897 -0.0966,0.126772 -0.32227,0.277059 -0.50158,0.33397 -0.30045,0.09536 -1.18123,1.549702 -1.18123,1.950443 0,0.218899 0.4226,-0.03372 0.88203,-0.527301 z m -0.25994,-2.040078 c 0.28488,-0.226386 0.48823,-0.453184 0.45192,-0.503987 -0.0363,-0.05082 0.007,-0.03089 0.0969,0.04419 0.1834,0.153751 1.047096,-0.433649 1.281426,-0.871506 0.15299,-0.28587 0.003,-0.261574 -0.728466,0.118205 -0.19752,0.102518 -0.42868,0.186794 -0.51366,0.187283 -0.17981,0.0011 -0.63316,0.47729 -0.99222,1.042375 -0.31758,0.499796 -0.24171,0.49669 0.40413,-0.01656 z m -28.77824,37.563708 c 0,-0.0298 0.11312,-0.14296 0.25139,-0.25139 0.22785,-0.17869 0.23293,-0.17361 0.0542,0.0542 -0.18766,0.23929 -0.30563,0.31539 -0.30563,0.19715 z M 112.88243,65.786023 c 0.007,-0.167352 0.0409,-0.201389 0.0868,-0.08679 0.0415,0.103697 0.0364,0.227602 -0.0113,0.275338 -0.0477,0.04772 -0.0817,-0.03714 -0.0755,-0.188548 z"
       id="path118"
       inkscape:connector-curvature="0" />
  </g>
</svg>
